<?xml version="1.0" encoding="UTF-8" standalone="no"?>
<!DOCTYPE svg PUBLIC "-//W3C//DTD SVG 1.1//EN" "http://www.w3.org/Graphics/SVG/1.1/DTD/svg11.dtd">
<svg width="100%" height="100%" viewBox="0 0 4678 6615" version="1.1" xmlns="http://www.w3.org/2000/svg" xmlns:xlink="http://www.w3.org/1999/xlink" xml:space="preserve" xmlns:serif="http://www.serif.com/" style="fill-rule:evenodd;clip-rule:evenodd;stroke-linecap:round;stroke-linejoin:round;">
    <g transform="matrix(1.33333,0,0,1.33333,0,0)">
        <g id="Key-Symbol" serif:id="Key Symbol" transform="matrix(3.15678,0,0,3.15678,-1778.5,-3023.43)">
            <g transform="matrix(1,0,0,1,-2.09605,-0.058075)">
                <path d="M881.407,2195.15C791.363,2174.76 724.049,2094.18 724.049,1998.01L724.049,1188.87C724.049,1077.31 814.621,986.739 926.181,986.739L1330.44,986.739C1442,986.739 1532.58,1077.31 1532.58,1188.87L1532.58,1998.01C1532.58,2090.97 1469.68,2169.36 1384.15,2192.91C1365.21,2202.59 1351.5,2221.06 1348.4,2242.92L1348.4,2377.2C1348.4,2436.27 1300.44,2484.22 1241.37,2484.22L1027.31,2484.22C968.24,2484.22 920.282,2436.27 920.282,2377.2L920.282,2238.11C914.53,2218.57 900.072,2202.76 881.407,2195.15ZM1134.41,1200.66C960.993,1200.66 820.202,1341.45 820.202,1514.86C820.202,1688.28 960.993,1829.07 1134.41,1829.07C1307.82,1829.07 1448.61,1688.28 1448.61,1514.86C1448.61,1341.45 1307.82,1200.66 1134.41,1200.66ZM1254.39,2200.18L1223.61,2200.18L1223.61,2457.66L1254.39,2457.66L1254.39,2200.18ZM1077.4,2200.18L1046.61,2200.18L1046.61,2457.66L1077.4,2457.66L1077.4,2200.18ZM1218.8,2200.18L1188.02,2200.18L1188.02,2457.66L1218.8,2457.66L1218.8,2200.18ZM1290.31,2200.18L1259.53,2200.18L1259.53,2465.67L1290.31,2465.67L1290.31,2200.18ZM1112.99,2200.18L1082.21,2200.18L1082.21,2457.66L1112.99,2457.66L1112.99,2200.18ZM1147.62,2200.18L1116.84,2200.18L1116.84,2457.66L1147.62,2457.66L1147.62,2200.18ZM1041.8,2200.18L1011.02,2200.18L1011.02,2457.66L1041.8,2457.66L1041.8,2200.18ZM975.429,2465.99L1006.21,2465.99L1006.21,2200.18L975.429,2200.18L975.429,2465.99ZM1183.21,2200.18L1152.43,2200.18L1152.43,2457.66L1183.21,2457.66L1183.21,2200.18Z"/>
            </g>
            <g id="wifi-svgrepo-com.svg" transform="matrix(0.398267,0,0,0.398267,1141.13,1468.3)">
                <g transform="matrix(1,0,0,1,-400,-400)">
                    <path d="M163.668,394.667C307.001,283.999 493.333,283.999 636.667,394.667" style="fill:none;fill-rule:nonzero;stroke:black;stroke-width:50px;"/>
                    <path d="M66.667,278.666C268.667,122.666 531.333,122.666 733.333,278.666" style="fill:none;fill-rule:nonzero;stroke:black;stroke-width:50px;"/>
                    <path d="M226.335,516.333C331.335,435 468.333,435 573.333,516.333" style="fill:none;fill-rule:nonzero;stroke:black;stroke-width:50px;"/>
                    <path d="M313.334,638.333C366,597.667 434.333,597.667 487,638.333" style="fill:none;fill-rule:nonzero;stroke:black;stroke-width:50px;"/>
                </g>
            </g>
        </g>
    </g>
</svg>
